<svg width="645" height="137" viewBox="0 0 645 137" fill="none" xmlns="http://www.w3.org/2000/svg">
<g filter="url(#filter0_d_102_56)">
<path d="M31 106L42 103.638C53 101.275 74.5 79.4755 96.5 77C118.5 74.5245 141 91.3733 163 86.2104C185 81.0476 207 70.9485 229 68.2834C251 65.6184 273 70.3875 295 71.3825C317 72.3775 337.044 61.7951 359.044 60.2986C381.044 58.8021 405 66.3915 427 60.2986C449 54.2056 471 42.2336 493 38.9851C515 35.7366 537 41.2117 559 40.8118C581 40.412 603 34.1373 614 31" stroke="#8A39D6" stroke-width="5" stroke-linecap="round"/>
</g>
<defs>
<filter id="filter0_d_102_56" x="0.499512" y="0.499329" width="644.001" height="136.001" filterUnits="userSpaceOnUse" color-interpolation-filters="sRGB">
<feFlood flood-opacity="0" result="BackgroundImageFix"/>
<feColorMatrix in="SourceAlpha" type="matrix" values="0 0 0 0 0 0 0 0 0 0 0 0 0 0 0 0 0 0 127 0" result="hardAlpha"/>
<feOffset/>
<feGaussianBlur stdDeviation="14"/>
<feComposite in2="hardAlpha" operator="out"/>
<feColorMatrix type="matrix" values="0 0 0 0 0.641276 0 0 0 0 0.365799 0 0 0 0 0.895833 0 0 0 1 0"/>
<feBlend mode="normal" in2="BackgroundImageFix" result="effect1_dropShadow_102_56"/>
<feBlend mode="normal" in="SourceGraphic" in2="effect1_dropShadow_102_56" result="shape"/>
</filter>
</defs>
</svg>
